<svg width="40" height="40" viewBox="0 0 40 40" fill="none" xmlns="http://www.w3.org/2000/svg">
<g clip-path="url(#clip0_617_2324)">
<g clip-path="url(#clip1_617_2324)">
<path d="M20 40C16.0444 40 12.1776 38.827 8.8886 36.6294C5.59962 34.4318 3.03617 31.3082 1.52242 27.6537C0.00866572 23.9992 -0.387401 19.9778 0.384303 16.0982C1.15601 12.2186 3.06082 8.65492 5.85787 5.85787C8.65492 3.06082 12.2186 1.15601 16.0982 0.384303C19.9778 -0.387401 23.9992 0.00866572 27.6537 1.52242C31.3082 3.03617 34.4318 5.59962 36.6294 8.8886C38.827 12.1776 40 16.0444 40 20C40.0023 22.6271 39.4866 25.2289 38.4824 27.6564C37.4781 30.084 36.005 32.2897 34.1474 34.1474C32.2897 36.005 30.084 37.4781 27.6564 38.4824C25.2289 39.4866 22.6271 40.0023 20 40Z" fill="#15B76C"/>
<path d="M29.6795 25.3779C29.0889 24.6401 28.35 24.0345 27.5106 23.6001C27.2706 23.4579 26.7373 23.1557 26.0173 22.7112C25.7081 22.5443 25.3631 22.4547 25.0117 22.4501C24.6603 22.4454 24.3131 22.5259 23.9995 22.6846L23.1106 23.1646C22.9241 23.2969 22.6989 23.3635 22.4704 23.3538C22.2419 23.3442 22.0231 23.2588 21.8484 23.1112C21.0068 22.4455 20.2109 21.7239 19.4662 20.9512C18.802 20.2707 18.2066 19.5264 17.6884 18.729C17.5752 18.5393 17.5191 18.321 17.527 18.1002C17.5349 17.8795 17.6064 17.6657 17.7329 17.4846C18.5151 16.4801 18.7729 15.6268 18.5151 15.0401C18.0473 13.9772 17.5037 12.9494 16.8884 11.9646C16.3995 11.0757 16.1329 10.5868 15.5018 10.5868C14.1862 10.5423 12.124 11.8668 12.0973 13.6801C12.0706 15.4934 12.8795 18.329 15.5373 21.6801C16.821 23.2976 18.2954 24.7541 19.9284 26.0179C20.8717 26.8017 21.9112 27.4618 23.0218 27.9823C23.998 28.5244 25.0882 28.8289 26.204 28.8712C26.6705 28.9045 27.1387 28.8369 27.5767 28.6728C28.0147 28.5088 28.4121 28.2523 28.742 27.9207C29.0719 27.5892 29.3264 27.1904 29.4882 26.7516C29.65 26.3128 29.7152 25.8442 29.6795 25.3779Z" fill="white"/>
</g>
</g>
<defs>
<clipPath id="clip0_617_2324">
<rect width="40" height="40" fill="white"/>
</clipPath>
<clipPath id="clip1_617_2324">
<rect width="40" height="40" fill="white"/>
</clipPath>
</defs>
</svg>
